<svg width="400" height="400" xmlns="http://www.w3.org/2000/svg" xmlns:svg="http://www.w3.org/2000/svg">
 <g>
  <title>Layer 1</title>
  <path stroke="#262626" d="m50.00002,270.6101c0,-0.06483 0,-1.17127 0,-1.92267c0,-0.88397 0,-1.90056 0,-3.04973c0,-1.28029 0,-1.96742 0,-2.68436c0,-0.74568 0,-1.51897 0,-2.31879c0,-0.82524 -0.00054,-2.54752 0.00019,-3.4422c0.00074,-0.91455 0.00266,-1.84679 0.0116,-2.79448c0.00907,-0.96099 0.02423,-1.93307 0.05138,-2.91384c0.02734,-0.98759 0.11495,-2.97388 0.18195,-3.96796c0.06706,-0.99491 0.15184,-1.98977 0.26022,-2.98345c0.10856,-0.99533 0.23984,-1.99038 0.39945,-2.98344c0.16008,-0.99599 0.55952,-2.98558 0.79982,-3.977c0.24002,-0.99024 0.50621,-1.96645 0.78232,-2.92542c0.27058,-0.93974 0.54953,-1.84946 0.8221,-2.72653c0.26083,-0.8393 0.74341,-2.37821 0.95341,-3.07018c0.19509,-0.64286 0.37324,-1.24558 0.55525,-1.80995c0.17363,-0.53836 0.34227,-1.05961 0.55525,-1.5514c0.64845,-1.49734 0.97631,-1.98746 1.66244,-2.99836c0.35471,-0.52261 1.13335,-1.53941 1.53518,-2.03536c0.39676,-0.4897 1.56811,-1.84504 2.30554,-2.65194c0.35328,-0.38656 1.05499,-1.12383 1.71916,-1.87018c1.01018,-1.13518 1.32158,-1.55313 2.00222,-2.35582c0.68366,-0.80626 0.98984,-1.24951 2.16133,-2.26742c0.75993,-0.66031 1.61585,-1.16396 2.04882,-1.38122c0.85171,-0.42738 2.18025,-0.86586 3.07828,-1.00847c0.93023,-0.14773 1.9594,-0.17039 2.51843,-0.17864c1.93077,-0.02849 2.67553,-0.01162 3.46761,-0.007c0.83189,0.00486 1.69592,0.01541 2.58399,0.0431c0.90497,0.02821 1.81952,0.06591 2.73317,0.14254c1.80445,0.15136 2.67791,0.28734 3.53003,0.44789c0.84201,0.15864 1.67101,0.35829 2.48454,0.60663c0.81775,0.24964 1.63338,0.54308 2.43482,0.90498c1.66227,0.75062 2.48147,1.24951 3.31641,1.76797c0.85756,0.53251 1.71093,1.11791 2.55913,1.74696c0.86406,0.64082 1.7215,1.3203 2.55913,2.04531c1.7009,1.47222 2.50623,2.27792 3.31493,3.08804c0.81423,0.81567 1.61453,1.65637 2.41327,2.50942c0.80424,0.85893 1.60357,1.73332 2.41327,2.60884c1.63509,1.768 2.47016,2.65024 3.31199,3.53004c0.84068,0.87859 1.68261,1.74723 2.51603,2.60884c0.82256,0.85038 1.6328,1.68451 2.41658,2.50942c1.50328,1.58215 2.20208,2.34831 2.87147,3.09392c0.64876,0.72265 1.27057,1.43324 1.87128,2.1315c0.58821,0.68373 1.1602,1.36116 1.72211,2.03206c1.11154,1.32713 1.6608,1.99245 2.21437,2.65194c0.55141,0.65691 1.10222,1.30773 1.65747,1.94587c0.54977,0.63185 1.09796,1.2522 1.65747,1.84642c1.09144,1.15913 1.6531,1.6921 2.207,2.20849c0.54161,0.50493 1.0826,0.98469 1.61438,1.44696c0.51728,0.44966 1.02577,0.87866 1.51492,1.2978c0.92733,0.79462 1.35655,1.17851 1.77091,1.54696c0.40039,0.35603 0.7885,0.70187 1.18012,1.02266c0.38349,0.31415 0.76916,0.61639 1.18011,0.87348c0.82636,0.51696 1.29459,0.70477 1.77092,0.88694c0.4866,0.18609 0.99447,0.34539 1.51493,0.49558c1.06595,0.30762 1.62187,0.42096 3.26814,0.93039c0.54996,0.17017 1.61157,0.54389 2.60407,0.90332c0.88737,0.32138 1.92644,0.77389 2.89854,0.9057c1.11869,0.1517 1.74858,0.08528 2.90057,-0.02301c0.91403,-0.08592 1.42353,-0.14837 3.02616,-0.66557c0.58999,-0.19041 1.7933,-0.7245 2.40663,-1.03794c0.62892,-0.3214 1.26214,-0.6696 1.8746,-1.07237c1.87633,-1.23389 2.44359,-1.76595 3.03648,-2.29357c0.61868,-0.55057 1.24298,-1.16171 1.88288,-1.83315c0.68449,-0.71823 1.40385,-1.50692 2.94366,-3.34145c0.86411,-1.02951 1.76193,-2.14909 2.70003,-3.33648c0.97888,-1.23902 1.97718,-2.53061 2.98841,-3.86356c1.02828,-1.35543 2.06337,-2.72576 4.07221,-5.5072c0.9909,-1.37202 1.95612,-2.74589 2.8989,-4.12876c0.94457,-1.3855 1.875,-2.79483 2.78952,-4.23814c0.92986,-1.46753 1.87177,-2.9728 3.70389,-6.18198c0.95947,-1.68062 1.90405,-3.43232 2.85747,-5.23096c0.97085,-1.83154 1.9343,-3.69914 2.89724,-5.58899c0.96783,-1.89948 1.92545,-3.80635 3.82175,-7.59635c0.93362,-1.86598 1.85185,-3.70318 2.74808,-5.50611c0.87466,-1.75954 1.72093,-3.47035 2.5293,-5.12819c0.77679,-1.59306 1.52334,-3.11229 2.82581,-5.94037c0.5894,-1.27977 1.11821,-2.48714 1.6094,-3.62488c0.46485,-1.0767 0.89835,-2.10781 1.321,-3.0978c0.41091,-0.96249 0.80486,-1.9136 1.67367,-3.7746c0.44246,-0.94777 0.9153,-1.89083 1.39559,-2.82763c0.47447,-0.92546 0.95055,-1.82353 1.41548,-2.68841c0.44345,-0.82494 0.86748,-1.59643 1.60884,-2.95545c0.3112,-0.57046 0.58272,-1.07525 0.8304,-1.5199c0.22251,-0.39944 0.43082,-0.7622 0.64143,-1.09226c0.20324,-0.31851 0.4125,-0.63389 0.92229,-1.25526c0.28532,-0.34777 0.6113,-0.70572 0.97293,-1.06906c0.37926,-0.38107 0.79177,-0.7592 1.24145,-1.1188c0.46046,-0.36824 0.93543,-0.74849 2.02137,-1.31123c0.55097,-0.28552 1.14345,-0.50369 1.75195,-0.69447c0.61897,-0.19407 1.26205,-0.34925 1.921,-0.48564c0.67114,-0.13891 1.35907,-0.25694 2.77276,-0.47736c0.72393,-0.11288 1.46256,-0.22253 2.21935,-0.32652c0.77692,-0.10676 1.57849,-0.20777 2.40829,-0.29668c0.85971,-0.09211 1.75352,-0.18521 3.6597,-0.29761c1.01567,-0.05989 2.07429,-0.09413 3.17239,-0.12101c1.13544,-0.02779 2.30643,-0.04244 3.5105,-0.05137c1.23499,-0.00917 2.49873,-0.01104 5.10352,-0.01179c1.33666,-0.00037 2.6932,0 4.06742,0c1.3897,0 2.79266,0 4.20666,0c1.42283,0 2.85231,0 5.72231,0c1.43629,0 2.87147,0 4.30443,0c1.42966,0 2.85491,0 4.27462,0c1.41307,0 2.81842,0 5.60149,0c1.37478,0 2.73299,0 4.06909,0c1.30849,0 2.58379,0 3.82045,0c1.19245,0 2.3352,0.00061 4.44938,0c0.96318,-0.00029 1.87116,0.00096 2.73483,-0.01492c0.83066,-0.01528 1.63973,-0.04426 2.43646,-0.10442c0.79825,-0.06028 1.61177,-0.12898 3.3002,-0.43315c0.90835,-0.16363 1.84897,-0.38513 2.81606,-0.64145c0.99407,-0.26346 1.9993,-0.56645 3.00497,-0.90995c1.01181,-0.34561 2.02587,-0.69479 3.93962,-1.57937c0.93462,-0.432 1.83373,-0.91993 2.70333,-1.46023c0.88275,-0.54844 1.75323,-1.16998 2.61383,-1.86797c0.90211,-0.73167 1.83383,-1.53781 3.70681,-3.48583c1.03686,-1.07839 2.08131,-2.28027 3.1525,-3.57184c1.12184,-1.35263 2.24843,-2.79427 3.37132,-4.3177c1.1561,-1.56849 2.33213,-3.18613 4.52596,-6.65933c1.12086,-1.7745 2.18719,-3.62152 3.22544,-5.52765c1.06023,-1.94653 2.06927,-3.97976 3.0862,-6.07461l1.0081,-2.1722l1.00149,-2.25507" id="svg_1" stroke-linecap="null" stroke-linejoin="null" stroke-dasharray="null" stroke-width="30" fill="none"/>
 </g>
</svg>